<mxfile host="app.diagrams.net" modified="2023-01-04T08:27:14.622Z" agent="5.0 (Windows NT 10.0; Win64; x64) AppleWebKit/537.36 (KHTML, like Gecko) Chrome/108.0.0.0 Safari/537.36" version="20.8.1" etag="mK0eYrkvAyZV43sDT5nE" type="github">
  <diagram id="Con1T22eHVNJqCQr2k7E" name="第 1 页">
    <mxGraphModel dx="875" dy="458" grid="1" gridSize="10" guides="1" tooltips="1" connect="1" arrows="1" fold="1" page="1" pageScale="1" pageWidth="827" pageHeight="1169" math="0" shadow="0">
      <root>
        <mxCell id="0" />
        <mxCell id="1" parent="0" />
        <mxCell id="adnNyEh4-D5oAyP5F37u-5" value="" style="edgeStyle=orthogonalEdgeStyle;rounded=0;orthogonalLoop=1;jettySize=auto;html=1;" edge="1" parent="1" source="adnNyEh4-D5oAyP5F37u-1" target="adnNyEh4-D5oAyP5F37u-2">
          <mxGeometry relative="1" as="geometry" />
        </mxCell>
        <mxCell id="adnNyEh4-D5oAyP5F37u-1" value="USB兼容性需求" style="rounded=0;whiteSpace=wrap;html=1;" vertex="1" parent="1">
          <mxGeometry x="90" y="110" width="120" height="60" as="geometry" />
        </mxCell>
        <mxCell id="adnNyEh4-D5oAyP5F37u-6" value="" style="edgeStyle=orthogonalEdgeStyle;rounded=0;orthogonalLoop=1;jettySize=auto;html=1;" edge="1" parent="1" source="adnNyEh4-D5oAyP5F37u-2" target="adnNyEh4-D5oAyP5F37u-3">
          <mxGeometry relative="1" as="geometry" />
        </mxCell>
        <mxCell id="adnNyEh4-D5oAyP5F37u-2" value="SW评估可行性" style="rounded=0;whiteSpace=wrap;html=1;" vertex="1" parent="1">
          <mxGeometry x="90" y="220" width="120" height="60" as="geometry" />
        </mxCell>
        <mxCell id="adnNyEh4-D5oAyP5F37u-3" value="SW评估可行性" style="rounded=0;whiteSpace=wrap;html=1;" vertex="1" parent="1">
          <mxGeometry x="90" y="330" width="120" height="60" as="geometry" />
        </mxCell>
        <mxCell id="adnNyEh4-D5oAyP5F37u-8" value="" style="endArrow=classic;html=1;rounded=0;exitX=0;exitY=0.5;exitDx=0;exitDy=0;" edge="1" parent="1" source="adnNyEh4-D5oAyP5F37u-2">
          <mxGeometry width="50" height="50" relative="1" as="geometry">
            <mxPoint x="350" y="290" as="sourcePoint" />
            <mxPoint x="40" y="140" as="targetPoint" />
            <Array as="points">
              <mxPoint x="40" y="250" />
            </Array>
          </mxGeometry>
        </mxCell>
        <mxCell id="adnNyEh4-D5oAyP5F37u-9" value="SW确认芯片平台解码格式支持情况" style="rounded=0;whiteSpace=wrap;html=1;" vertex="1" parent="1">
          <mxGeometry x="90" y="450" width="120" height="60" as="geometry" />
        </mxCell>
        <mxCell id="adnNyEh4-D5oAyP5F37u-10" value="SW屏蔽需求外格式" style="rounded=0;whiteSpace=wrap;html=1;" vertex="1" parent="1">
          <mxGeometry x="90" y="555" width="120" height="60" as="geometry" />
        </mxCell>
        <mxCell id="adnNyEh4-D5oAyP5F37u-11" value="Media小组负责人核实确认" style="rounded=0;whiteSpace=wrap;html=1;" vertex="1" parent="1">
          <mxGeometry x="100" y="660" width="100" height="60" as="geometry" />
        </mxCell>
      </root>
    </mxGraphModel>
  </diagram>
</mxfile>
